<svg width="917" height="894" viewBox="0 0 917 894" fill="none" xmlns="http://www.w3.org/2000/svg">
<path d="M458.172 0C205.133 0 0 189.211 0 422.619C0 508.637 27.9302 588.601 75.7816 655.349C69.4955 732.466 51.4069 841.091 0 893.998C0 893.998 155.229 871.542 261.58 806.303C261.689 806.228 261.744 806.114 261.836 806.058C294.715 785.204 331.643 760.862 340.678 753.584C346.195 745.721 356.788 743.346 365.016 748.474C370.478 751.887 373.942 758.128 373.96 764.69C374.015 775.663 373.813 778.718 307.049 821.595C354.369 836.867 405.189 845.239 458.154 845.239C711.193 845.239 916.326 656.027 916.326 422.619C916.326 189.211 711.211 0 458.172 0Z" fill="white"/>
<path d="M595.624 309.488H339.047C328.931 309.488 320.72 301.059 320.72 290.632C320.72 280.206 328.931 271.777 339.047 271.777H595.624C605.74 271.777 613.95 280.206 613.95 290.632C613.95 301.059 605.74 309.488 595.624 309.488Z" fill="#1DD3C5"/>
<path d="M696.421 441.474H238.249C228.133 441.474 219.922 433.046 219.922 422.619C219.922 412.192 228.133 403.764 238.249 403.764H696.421C706.538 403.764 714.748 412.192 714.748 422.619C714.748 433.046 706.538 441.474 696.421 441.474Z" fill="#1DD3C5"/>
<path d="M696.421 573.46H238.249C228.133 573.46 219.922 565.032 219.922 554.605C219.922 544.178 228.133 535.75 238.249 535.75H696.421C706.538 535.75 714.748 544.178 714.748 554.605C714.748 565.032 706.538 573.46 696.421 573.46Z" fill="#1DD3C5"/>
</svg>
